<svg xmlns="http://www.w3.org/2000/svg" xmlns:xlink="http://www.w3.org/1999/xlink" viewBox="0 0 202.8 60"><defs><style>.cls-1{fill:none;clip-rule:evenodd;}.cls-2{clip-path:url(#clip-path);}.cls-3{fill:url(#linear-gradient);}.cls-4{clip-path:url(#clip-path-2);}.cls-5{fill:url(#linear-gradient-2);}.cls-6{clip-path:url(#clip-path-3);}.cls-7{fill:url(#linear-gradient-3);}.cls-8{clip-path:url(#clip-path-4);}.cls-9{fill:url(#linear-gradient-4);}.cls-10{clip-path:url(#clip-path-5);}.cls-11{fill:url(#linear-gradient-5);}.cls-12{clip-path:url(#clip-path-6);}.cls-13{fill:url(#linear-gradient-6);}.cls-14{clip-path:url(#clip-path-7);}.cls-15{fill:url(#linear-gradient-7);}.cls-16{clip-path:url(#clip-path-8);}.cls-17{fill:url(#linear-gradient-8);}.cls-18{clip-path:url(#clip-path-9);}.cls-19{fill:url(#linear-gradient-9);}.cls-20{clip-path:url(#clip-path-10);}.cls-21{fill:url(#linear-gradient-10);}.cls-22{clip-path:url(#clip-path-11);}.cls-23{fill:url(#linear-gradient-11);}.cls-24{clip-path:url(#clip-path-12);}.cls-25{fill:url(#linear-gradient-12);}.cls-26{fill:#c2a06f;}</style><clipPath id="clip-path" transform="translate(7.8)"><path class="cls-1" d="M28.39,15,28,12.15c15.64,1.69,28.22,20.68,15.77,37.93V44.66c5.53-9.86.61-26.72-15.33-29.64"/></clipPath><linearGradient id="linear-gradient" x1="56.57" y1="31.11" x2="35.75" y2="31.11" gradientUnits="userSpaceOnUse"><stop offset="0" stop-color="#b78646"/><stop offset="0.13" stop-color="#c49b5a"/><stop offset="0.27" stop-color="#ceaa69"/><stop offset="0.38" stop-color="#d2b06e"/><stop offset="0.45" stop-color="#d8ba77"/><stop offset="0.65" stop-color="#e7d18a"/><stop offset="0.84" stop-color="#efdf96"/><stop offset="1" stop-color="#f2e49a"/></linearGradient><clipPath id="clip-path-2" transform="translate(7.8)"><path class="cls-1" d="M44.86,44.79v1.55c7-13.19-.27-29.53-15.69-33l.16.77c12.58,2.7,21.25,16.38,15.53,30.65"/></clipPath><linearGradient id="linear-gradient-2" x1="36.97" y1="29.86" x2="55.35" y2="29.86" gradientUnits="userSpaceOnUse"><stop offset="0" stop-color="#ead587"/><stop offset="0.09" stop-color="#f0e198"/><stop offset="0.22" stop-color="#f6eea8"/><stop offset="0.31" stop-color="#f8f2ae"/><stop offset="0.37" stop-color="#f1e6a3"/><stop offset="0.49" stop-color="#ddc685"/><stop offset="0.64" stop-color="#be9256"/><stop offset="0.86" stop-color="#b68645"/><stop offset="1" stop-color="#bd8e51"/></linearGradient><clipPath id="clip-path-3" transform="translate(7.8)"><path class="cls-1" d="M24.84,14.62V12C6.74,10.53-7.8,32.8,4.65,50V44.62c-6-13.31,3.73-30.59,20.19-30"/></clipPath><linearGradient id="linear-gradient-3" x1="7.8" y1="30.28" x2="32.64" y2="30.28" gradientUnits="userSpaceOnUse"><stop offset="0" stop-color="#d2b174"/><stop offset="0.19" stop-color="#d1ae72"/><stop offset="0.34" stop-color="#cea46c"/><stop offset="0.36" stop-color="#cda26b"/><stop offset="1" stop-color="#f6eeb5"/></linearGradient><clipPath id="clip-path-4" transform="translate(7.8)"><path class="cls-1" d="M3.73,45V46.5C-3.94,32.11,5.43,14,23.8,12.92l0,.9C8.89,13.82-2.66,29,3.73,45"/></clipPath><linearGradient id="linear-gradient-4" x1="8.84" y1="29.71" x2="31.6" y2="29.71" gradientUnits="userSpaceOnUse"><stop offset="0" stop-color="#ac834d"/><stop offset="0.3" stop-color="#b3804c"/><stop offset="0.35" stop-color="#b8864a"/><stop offset="0.45" stop-color="#ba8949"/><stop offset="0.76" stop-color="#caa760"/><stop offset="1" stop-color="#f9eda3"/></linearGradient><clipPath id="clip-path-5" transform="translate(7.8)"><path class="cls-1" d="M5.23,50.84v-6c2.29-.06,4.94-2,7.74-4.59v17a27.25,27.25,0,0,1-7.74-6.38"/></clipPath><linearGradient id="linear-gradient-5" x1="13.04" y1="48.73" x2="20.77" y2="48.73" gradientUnits="userSpaceOnUse"><stop offset="0" stop-color="#f9f9f9"/><stop offset="0.53" stop-color="#f1f0f2"/><stop offset="1" stop-color="#e5e4e8"/></linearGradient><clipPath id="clip-path-6" transform="translate(7.8)"><path class="cls-1" d="M6.18,50.32V45.79c1.73,0,3.73-1.47,5.84-3.46V55.14a20.48,20.48,0,0,1-5.84-4.82"/></clipPath><linearGradient id="linear-gradient-6" x1="13.98" y1="48.73" x2="19.83" y2="48.73" gradientUnits="userSpaceOnUse"><stop offset="0" stop-color="#aeb0b4"/><stop offset="0.09" stop-color="#babcbf"/><stop offset="0.34" stop-color="#d9dcdd"/><stop offset="0.38" stop-color="#dfe1e2"/><stop offset="0.47" stop-color="#eaeced"/><stop offset="0.58" stop-color="#eeeff0"/><stop offset="0.8" stop-color="#fff"/><stop offset="0.93" stop-color="#d3d1da"/><stop offset="1" stop-color="#c1beca"/></linearGradient><clipPath id="clip-path-7" transform="translate(7.8)"><path class="cls-1" d="M43.27,50.81V40.66C41,40.6,37.9,37.2,35.54,34.32V57.2a27,27,0,0,0,7.73-6.39"/></clipPath><linearGradient id="linear-gradient-7" x1="51.08" y1="45.76" x2="43.34" y2="45.76" gradientUnits="userSpaceOnUse"><stop offset="0" stop-color="#ba8c4a"/><stop offset="0.15" stop-color="#be9354"/><stop offset="0.7" stop-color="#cdac74"/><stop offset="1" stop-color="#d2b580"/></linearGradient><clipPath id="clip-path-8" transform="translate(7.8)"><path class="cls-1" d="M42.33,50.51V41.44c-1.73,0-3.73-2.21-5.85-4.2V55.33a20.51,20.51,0,0,0,5.85-4.82"/></clipPath><linearGradient id="linear-gradient-8" x1="50.13" y1="46.29" x2="44.29" y2="46.29" gradientUnits="userSpaceOnUse"><stop offset="0" stop-color="#b3834b"/><stop offset="0.15" stop-color="#d0b375"/><stop offset="0.34" stop-color="#f7f2ad"/><stop offset="0.37" stop-color="#f6eda7"/><stop offset="0.48" stop-color="#f2de97"/><stop offset="0.57" stop-color="#f1d991"/><stop offset="0.58" stop-color="#edd48d"/><stop offset="0.65" stop-color="#d8b675"/><stop offset="0.72" stop-color="#c8a062"/><stop offset="0.8" stop-color="#bc9055"/><stop offset="0.88" stop-color="#b5864d"/><stop offset="1" stop-color="#b3834b"/></linearGradient><clipPath id="clip-path-9" transform="translate(7.8)"><path class="cls-1" d="M23.13,60V23.1c-1,5.22-3.94,10.06-7.82,14.7V58.24A23.47,23.47,0,0,0,23.13,60"/></clipPath><linearGradient id="linear-gradient-9" x1="23.11" y1="41.55" x2="30.93" y2="41.55" gradientUnits="userSpaceOnUse"><stop offset="0" stop-color="#f2f2f2"/><stop offset="1" stop-color="#f9f9f9"/></linearGradient><clipPath id="clip-path-10" transform="translate(7.8)"><path class="cls-1" d="M22.15,58.8V29.47a32.23,32.23,0,0,1-5.83,8.64l-.05,19.37a20.75,20.75,0,0,0,5.88,1.32"/></clipPath><linearGradient id="linear-gradient-10" x1="24.07" y1="44.14" x2="29.95" y2="44.14" gradientUnits="userSpaceOnUse"><stop offset="0" stop-color="#aeb0b4"/><stop offset="0.13" stop-color="#b1b3b7"/><stop offset="0.23" stop-color="#bbbdc0"/><stop offset="0.32" stop-color="#cbced0"/><stop offset="0.38" stop-color="#d9dcdd"/><stop offset="0.44" stop-color="#e3e5e6"/><stop offset="0.53" stop-color="#eeeff0"/><stop offset="0.8" stop-color="#fff"/><stop offset="0.93" stop-color="#d3d1da"/><stop offset="1" stop-color="#c1beca"/></linearGradient><clipPath id="clip-path-11" transform="translate(7.8)"><path class="cls-1" d="M25.29,60V0c.89,10.64,3.65,23.43,7.53,29.75l.22,28.55A23.59,23.59,0,0,1,25.29,60"/></clipPath><linearGradient id="linear-gradient-11" x1="40.85" y1="29.98" x2="33.1" y2="29.98" gradientUnits="userSpaceOnUse"><stop offset="0" stop-color="#f6db93"/><stop offset="1" stop-color="#f8f2ac"/></linearGradient><clipPath id="clip-path-12" transform="translate(7.8)"><path class="cls-1" d="M26.23,58.8V14.1c1.94,7.54,3.89,13.07,5.83,16.23l0,27.15a20.75,20.75,0,0,1-5.88,1.32"/></clipPath><linearGradient id="linear-gradient-12" x1="39.91" y1="36.45" x2="34.03" y2="36.45" gradientUnits="userSpaceOnUse"><stop offset="0" stop-color="#c8a068"/><stop offset="0.11" stop-color="#c8a068"/><stop offset="0.17" stop-color="#e0bb7c"/><stop offset="0.22" stop-color="#f0cd89"/><stop offset="0.26" stop-color="#f6d48e"/><stop offset="0.67" stop-color="#faf6af"/><stop offset="0.82" stop-color="#dcba77"/><stop offset="1" stop-color="#b6854c"/></linearGradient></defs><g id="Layer_2" data-name="Layer 2"><g id="Layer_1-2" data-name="Layer 1"><g class="cls-2"><rect class="cls-3" x="35.75" y="12.15" width="28.22" height="37.93"/></g><g class="cls-4"><rect class="cls-5" x="36.97" y="13.37" width="22.72" height="32.97"/></g><g class="cls-6"><rect class="cls-7" y="10.53" width="32.64" height="39.51"/></g><g class="cls-8"><rect class="cls-9" x="3.86" y="12.92" width="27.74" height="33.58"/></g><g class="cls-10"><rect class="cls-11" x="13.04" y="40.25" width="7.74" height="16.97"/></g><g class="cls-12"><rect class="cls-13" x="13.98" y="42.33" width="5.84" height="12.82"/></g><g class="cls-14"><rect class="cls-15" x="43.34" y="34.32" width="7.74" height="22.87"/></g><g class="cls-16"><rect class="cls-17" x="44.29" y="37.24" width="5.84" height="18.09"/></g><g class="cls-18"><rect class="cls-19" x="23.11" y="23.1" width="7.82" height="36.9"/></g><g class="cls-20"><rect class="cls-21" x="24.07" y="29.47" width="5.88" height="29.33"/></g><g class="cls-22"><rect class="cls-23" x="33.1" width="7.75" height="59.97"/></g><g class="cls-24"><rect class="cls-25" x="34.03" y="14.1" width="5.88" height="44.71"/></g><path class="cls-26" d="M68,34.56a1,1,0,0,0,.61.29v.37c-.74,0-1.67,0-2.79,0s-2.19,0-2.79,0v-.37a2.67,2.67,0,0,0,1-.17.5.5,0,0,0,.3-.5,2.7,2.7,0,0,0-.22-.87L63,30.3H59l-.48,1.26a5.91,5.91,0,0,0-.5,2.05,1.06,1.06,0,0,0,.4,1,2.4,2.4,0,0,0,1.22.29v.37c-.82,0-1.58,0-2.28,0a13.86,13.86,0,0,0-1.4,0v-.37c.61-.1,1.14-.74,1.58-1.93l4.19-10.74a6.4,6.4,0,0,0,.64,0,5.78,5.78,0,0,0,.63,0l4.46,11.5A2.26,2.26,0,0,0,68,34.56Zm-7-9.59-1.9,5h3.72Z" transform="translate(7.8)"/><path class="cls-26" d="M73.81,25.92a3.21,3.21,0,0,1,1.71-.45,2.87,2.87,0,0,1,1.7.52,3.34,3.34,0,0,1,1.17,1.54A6.61,6.61,0,0,1,78.82,30a7.56,7.56,0,0,1-.53,3,4,4,0,0,1-1.48,1.84,4.08,4.08,0,0,1-2.25.62,2.82,2.82,0,0,1-1.88-.58v1.83a1.34,1.34,0,0,0,.41,1.12,2,2,0,0,0,1.24.31v.39l-1.22,0-1.86,0-1.43,0-.89,0v-.39a1.62,1.62,0,0,0,.65-.11.67.67,0,0,0,.34-.39,1.89,1.89,0,0,0,.12-.75V27.72a2.2,2.2,0,0,0-.27-1.23,1,1,0,0,0-.91-.38v-.39a11.17,11.17,0,0,0,1.14.06,12.52,12.52,0,0,0,2.68-.25v1.7A2.85,2.85,0,0,1,73.81,25.92Zm0,9.06a1.75,1.75,0,0,0,1.69-1.17A8.89,8.89,0,0,0,76,30.4a8.63,8.63,0,0,0-.41-3.18,1.3,1.3,0,0,0-1.18-1,1.68,1.68,0,0,0-1.12.42,2,2,0,0,0-.65,1.17v6.64A1.43,1.43,0,0,0,73.84,35Z" transform="translate(7.8)"/><path class="cls-26" d="M83,30.4a5.18,5.18,0,0,0,.34,2,2.66,2.66,0,0,0,.88,1.17,2,2,0,0,0,1.16.37,2.76,2.76,0,0,0,2.43-1.47l.33.11a4.57,4.57,0,0,1-.73,1.4,3.61,3.61,0,0,1-1.23,1.06,3.54,3.54,0,0,1-1.71.41,4.45,4.45,0,0,1-2.22-.54,3.65,3.65,0,0,1-1.49-1.63,6.23,6.23,0,0,1-.53-2.74,6.28,6.28,0,0,1,.57-2.81,3.89,3.89,0,0,1,1.59-1.71,4.56,4.56,0,0,1,2.34-.58q3.45,0,3.45,4.07H83C83,29.72,83,30,83,30.4Zm2.58-3.59c-.22-.64-.54-.95-1-.95a1.27,1.27,0,0,0-1.09.81A6.25,6.25,0,0,0,83,29.19h2.88A7.17,7.17,0,0,0,85.55,26.81Z" transform="translate(7.8)"/><path class="cls-26" d="M97.81,34.57a.84.84,0,0,0,.51.26v.39c-1,0-1.63-.07-2-.07s-1.15,0-2.4.07v-.39a1,1,0,0,0,.46-.09.31.31,0,0,0,.16-.27.56.56,0,0,0-.08-.26l-1.92-2.85-.63.81a2.44,2.44,0,0,0-.61,1.46,1.09,1.09,0,0,0,.35.85,1.57,1.57,0,0,0,1,.37v.37c-.71,0-1.6,0-2.64,0a12.05,12.05,0,0,0-1.29,0v-.37a2.47,2.47,0,0,0,.8-.47,6.93,6.93,0,0,0,.87-.94l2-2.4-2.7-4a4.64,4.64,0,0,0-.55-.69.83.83,0,0,0-.48-.23v-.39c1.07.05,1.8.07,2.18.07s1.05,0,2.17-.07v.39a.88.88,0,0,0-.45.1.29.29,0,0,0-.17.27.54.54,0,0,0,.09.26l1.73,2.57.7-.92A2.5,2.5,0,0,0,95.52,27a.76.76,0,0,0-.28-.62,1.36,1.36,0,0,0-.83-.27v-.37q1.07.06,2.07.06a11.58,11.58,0,0,0,1.3-.06v.37a4.07,4.07,0,0,0-1.68,1.42l-1.7,2.12,2.89,4.29A5.41,5.41,0,0,0,97.81,34.57Z" transform="translate(7.8)"/><path class="cls-26" d="M114.4,35.23a3.35,3.35,0,0,1-1.37.25,2.81,2.81,0,0,1-1.68-.45,2.27,2.27,0,0,1-.8-1.54l-.34-1.83a11.54,11.54,0,0,0-.33-1.43,2.17,2.17,0,0,0-.5-.86,1.21,1.21,0,0,0-.87-.32h-1.19v4.22a3.54,3.54,0,0,0,.1,1,.64.64,0,0,0,.37.43,2.9,2.9,0,0,0,.9.14v.37c-.65,0-1.58,0-2.77,0s-2.28,0-2.9,0v-.37a2.83,2.83,0,0,0,.89-.14.68.68,0,0,0,.38-.43,3.54,3.54,0,0,0,.1-1V24.16a3.46,3.46,0,0,0-.1-1,.68.68,0,0,0-.38-.43,2.77,2.77,0,0,0-.89-.15v-.36c.62,0,1.55.05,2.79.05l1.63,0,1.25,0a7.09,7.09,0,0,1,3.81.83,2.65,2.65,0,0,1,1.28,2.37A3.38,3.38,0,0,1,113.4,27a3.43,3.43,0,0,1-1.31,1.28,6.35,6.35,0,0,1-2.44.72h0a6.29,6.29,0,0,1,1.82.38,2.58,2.58,0,0,1,1.12.77,2.85,2.85,0,0,1,.56,1.27l.42,1.89a3.22,3.22,0,0,0,.35,1,.6.6,0,0,0,.54.29.77.77,0,0,0,.38-.11,1.57,1.57,0,0,0,.36-.31l.25.22A3.2,3.2,0,0,1,114.4,35.23Zm-4.68-6.94a2,2,0,0,0,.79-1.06,5,5,0,0,0,.22-1.6,4,4,0,0,0-.53-2.27,2,2,0,0,0-1.74-.78,1.72,1.72,0,0,0-.74.13.73.73,0,0,0-.32.46,4.75,4.75,0,0,0-.08,1v4.52h.79A2.88,2.88,0,0,0,109.72,28.29Z" transform="translate(7.8)"/><path class="cls-26" d="M118.55,30.4a5.37,5.37,0,0,0,.34,2,2.68,2.68,0,0,0,.89,1.17,2,2,0,0,0,1.16.37,2.76,2.76,0,0,0,2.43-1.47l.32.11A4.34,4.34,0,0,1,123,34a3.65,3.65,0,0,1-1.24,1.06,3.54,3.54,0,0,1-1.71.41,4.39,4.39,0,0,1-2.21-.54,3.59,3.59,0,0,1-1.49-1.63,6.22,6.22,0,0,1-.54-2.74,6.15,6.15,0,0,1,.58-2.81,3.92,3.92,0,0,1,1.58-1.71,4.63,4.63,0,0,1,2.35-.58q3.45,0,3.45,4.07h-5.16C118.56,29.72,118.55,30,118.55,30.4Zm2.58-3.59c-.21-.64-.53-.95-1-.95a1.26,1.26,0,0,0-1.09.81,6.25,6.25,0,0,0-.53,2.52h2.87A7.17,7.17,0,0,0,121.13,26.81Z" transform="translate(7.8)"/><path class="cls-26" d="M129.52,26.27a1.4,1.4,0,0,0-1.14-.44,2.5,2.5,0,0,0-.71.11,1.6,1.6,0,0,0-.6.34,1.64,1.64,0,0,1,.8.53,1.44,1.44,0,0,1,.29.91,1.3,1.3,0,0,1-.18.68,1.37,1.37,0,0,1-.53.48,1.79,1.79,0,0,1-.78.17,1.21,1.21,0,0,1-1-.4,1.52,1.52,0,0,1-.35-1,1.76,1.76,0,0,1,1-1.54,5.77,5.77,0,0,1,2.8-.62,3.61,3.61,0,0,1,2.68.83,1.88,1.88,0,0,1,.52,1,7.25,7.25,0,0,1,.14,1.6v5a1.8,1.8,0,0,0,.08.63.31.31,0,0,0,.3.18,1.11,1.11,0,0,0,.68-.31l.19.31a2.5,2.5,0,0,1-.91.51,3.79,3.79,0,0,1-1.19.17,1.81,1.81,0,0,1-1.34-.42,1.42,1.42,0,0,1-.41-1.07A2.86,2.86,0,0,1,128.75,35a3.32,3.32,0,0,1-1.55.38,2.45,2.45,0,0,1-1.68-.56,1.92,1.92,0,0,1-.63-1.53,2.19,2.19,0,0,1,.62-1.59,5.32,5.32,0,0,1,1.95-1.11l.93-.36a3.65,3.65,0,0,0,1.14-.61.93.93,0,0,0,.35-.69V27.47A1.83,1.83,0,0,0,129.52,26.27Zm0,3.79a8.14,8.14,0,0,1-.76.51,3.31,3.31,0,0,0-.91.92,2.23,2.23,0,0,0-.33,1.26,1.59,1.59,0,0,0,.31,1.07,1.06,1.06,0,0,0,.82.35,1.5,1.5,0,0,0,1.25-.75V29.65A1.56,1.56,0,0,1,129.5,30.06Z" transform="translate(7.8)"/><path class="cls-26" d="M138.17,34.31a.72.72,0,0,0,.37.41,1.68,1.68,0,0,0,.7.11v.39c-1.27,0-2.09-.07-2.46-.07s-1.27,0-2.54.07v-.39a1.66,1.66,0,0,0,.69-.11.72.72,0,0,0,.37-.41,2.11,2.11,0,0,0,.11-.79V23a2.16,2.16,0,0,0-.26-1.23,1,1,0,0,0-.91-.38V21a11.17,11.17,0,0,0,1.14.06,11.78,11.78,0,0,0,2.68-.26V33.52A2.33,2.33,0,0,0,138.17,34.31Z" transform="translate(7.8)"/><path class="cls-26" d="M154.55,32.43a23.83,23.83,0,0,0,.13,2.79c-.83,0-2.23,0-4.21,0-2.66,0-4.66,0-6,0v-.37a2.83,2.83,0,0,0,.89-.14.68.68,0,0,0,.38-.43,3.54,3.54,0,0,0,.1-1V24.16a3.46,3.46,0,0,0-.1-1,.68.68,0,0,0-.38-.43,2.77,2.77,0,0,0-.89-.15v-.36c1.32,0,3.32.05,6,.05,1.8,0,3.08,0,3.84-.05-.08,1-.12,1.91-.12,2.71a10.12,10.12,0,0,0,.05,1.25h-.42a7.1,7.1,0,0,0-.58-2.11,2.46,2.46,0,0,0-1-1.1,3,3,0,0,0-1.47-.33h-.75a2.75,2.75,0,0,0-.83.09.53.53,0,0,0-.34.36,2.93,2.93,0,0,0-.09.86v4.54h.58a1.7,1.7,0,0,0,1.49-.71,4.53,4.53,0,0,0,.7-1.71H152c0,.61-.06,1.18-.06,1.73v.88c0,.62,0,1.49.1,2.61h-.42c-.24-1.62-1-2.43-2.24-2.43h-.58v4.63a3,3,0,0,0,.09.86.54.54,0,0,0,.34.35,2.4,2.4,0,0,0,.83.1H151a2.66,2.66,0,0,0,2.09-.9,6,6,0,0,0,1.14-3h.42C154.57,31.29,154.55,31.8,154.55,32.43Z" transform="translate(7.8)"/><path class="cls-26" d="M157.58,34.16a1.91,1.91,0,0,0,1.69.9,1.35,1.35,0,0,0,.92-.33,1.23,1.23,0,0,0,.38-1,1.87,1.87,0,0,0-.23-.92,2.78,2.78,0,0,0-.58-.71c-.23-.21-.58-.5-1-.86s-1-.83-1.27-1.09a3.43,3.43,0,0,1-.73-.94A2.39,2.39,0,0,1,156.4,28a2.17,2.17,0,0,1,.43-1.36,2.7,2.7,0,0,1,1.16-.87,4.08,4.08,0,0,1,1.58-.3,4.72,4.72,0,0,1,1.28.17,3.41,3.41,0,0,1,.91.4.61.61,0,0,0,.33.12c.22,0,.37-.22.43-.67h.4c0,.62-.07,1.69-.07,3.23h-.4a4.54,4.54,0,0,0-.73-2,1.83,1.83,0,0,0-1.62-.82,1.28,1.28,0,0,0-.9.31,1.11,1.11,0,0,0-.35.86,1.56,1.56,0,0,0,.41,1.07,6.68,6.68,0,0,0,1,.86c.39.27.67.48.85.62a14,14,0,0,1,1.2,1,3.77,3.77,0,0,1,.72,1,2.64,2.64,0,0,1,.28,1.22,2.32,2.32,0,0,1-.47,1.43,3.07,3.07,0,0,1-1.27,1,4.4,4.4,0,0,1-1.75.34,3.6,3.6,0,0,1-1.71-.39,7.22,7.22,0,0,0-.86-.38l-.09,0c-.19,0-.34.22-.43.66h-.4c0-.7.07-1.93.07-3.67h.4A5.58,5.58,0,0,0,157.58,34.16Z" transform="translate(7.8)"/><path class="cls-26" d="M170.34,25.74v.37h-2.17v7.41a1.19,1.19,0,0,0,.19.77.79.79,0,0,0,.61.23c.52,0,.94-.37,1.25-1.1l.31.17a2.74,2.74,0,0,1-4.35,1.26,2,2,0,0,1-.52-1,7.37,7.37,0,0,1-.14-1.6V26.11H164v-.37h1.54V23.3a5.72,5.72,0,0,0,2.65-.59v3Z" transform="translate(7.8)"/><path class="cls-26" d="M175.62,26.27a1.43,1.43,0,0,0-1.14-.44,2.57,2.57,0,0,0-.72.11,1.55,1.55,0,0,0-.59.34,1.64,1.64,0,0,1,.8.53,1.44,1.44,0,0,1,.29.91,1.31,1.31,0,0,1-.19.68,1.28,1.28,0,0,1-.52.48,1.79,1.79,0,0,1-.78.17,1.2,1.2,0,0,1-1-.4,1.52,1.52,0,0,1-.35-1,1.76,1.76,0,0,1,1-1.54,5.77,5.77,0,0,1,2.8-.62,3.63,3.63,0,0,1,2.68.83,1.88,1.88,0,0,1,.52,1,7.36,7.36,0,0,1,.13,1.6v5a1.54,1.54,0,0,0,.09.63.31.31,0,0,0,.3.18,1.13,1.13,0,0,0,.68-.31l.19.31a2.54,2.54,0,0,1-.92.51,3.68,3.68,0,0,1-1.18.17,1.81,1.81,0,0,1-1.34-.42,1.42,1.42,0,0,1-.42-1.07A2.9,2.9,0,0,1,174.85,35a3.35,3.35,0,0,1-1.55.38,2.45,2.45,0,0,1-1.68-.56,1.89,1.89,0,0,1-.64-1.53,2.16,2.16,0,0,1,.63-1.59,5.32,5.32,0,0,1,1.95-1.11l.93-.36a3.65,3.65,0,0,0,1.14-.61.93.93,0,0,0,.35-.69V27.47A1.83,1.83,0,0,0,175.62,26.27Zm0,3.79a8.14,8.14,0,0,1-.76.51,3.5,3.5,0,0,0-.92.92,2.23,2.23,0,0,0-.33,1.26,1.59,1.59,0,0,0,.32,1.07,1.06,1.06,0,0,0,.82.35,1.5,1.5,0,0,0,1.25-.75V29.65A1.76,1.76,0,0,1,175.6,30.06Z" transform="translate(7.8)"/><path class="cls-26" d="M186.32,25.74v.37h-2.17v7.41a1.13,1.13,0,0,0,.2.77.76.76,0,0,0,.61.23c.52,0,.93-.37,1.24-1.1l.32.17A2.53,2.53,0,0,1,184,35.48a2.46,2.46,0,0,1-1.83-.63,1.9,1.9,0,0,1-.53-1,7.37,7.37,0,0,1-.14-1.6V26.11H180v-.37h1.54V23.3a5.69,5.69,0,0,0,2.65-.59v3Z" transform="translate(7.8)"/><path class="cls-26" d="M189.82,30.4a5.18,5.18,0,0,0,.34,2A2.59,2.59,0,0,0,191,33.6a2,2,0,0,0,1.16.37,2.76,2.76,0,0,0,2.43-1.47l.33.11a4.57,4.57,0,0,1-.73,1.4A3.71,3.71,0,0,1,193,35.07a3.54,3.54,0,0,1-1.71.41,4.4,4.4,0,0,1-2.22-.54,3.59,3.59,0,0,1-1.49-1.63,6.23,6.23,0,0,1-.53-2.74,6.28,6.28,0,0,1,.57-2.81,3.89,3.89,0,0,1,1.59-1.71,4.56,4.56,0,0,1,2.34-.58q3.45,0,3.45,4.07h-5.16C189.83,29.72,189.82,30,189.82,30.4Zm2.57-3.59c-.21-.64-.53-.95-1-.95a1.26,1.26,0,0,0-1.09.81,6.25,6.25,0,0,0-.53,2.52h2.88A7.14,7.14,0,0,0,192.39,26.81Z" transform="translate(7.8)"/><path class="cls-26" d="M56.82,49.32V42.78h.57v6h3.38v.5Z" transform="translate(7.8)"/><path class="cls-26" d="M64.2,49a2.61,2.61,0,0,1-1-1.16,4.07,4.07,0,0,1-.36-1.78,4.22,4.22,0,0,1,.35-1.78,2.61,2.61,0,0,1,1-1.16,2.89,2.89,0,0,1,1.55-.4,3,3,0,0,1,1.57.4,2.7,2.7,0,0,1,1,1.15A4.25,4.25,0,0,1,68.66,46a4.14,4.14,0,0,1-.35,1.79,2.61,2.61,0,0,1-1,1.16,2.92,2.92,0,0,1-1.56.4A2.85,2.85,0,0,1,64.2,49Zm3.26-.85a3.24,3.24,0,0,0,.61-2.1A3.18,3.18,0,0,0,67.46,44,2.36,2.36,0,0,0,64,44,3.18,3.18,0,0,0,63.42,46a3.22,3.22,0,0,0,.61,2.1,2.34,2.34,0,0,0,3.43,0Z" transform="translate(7.8)"/><path class="cls-26" d="M72.43,49.19a3,3,0,0,1-1.06-.65l.24-.45a3.13,3.13,0,0,0,1,.61,3.27,3.27,0,0,0,1.19.19,2.2,2.2,0,0,0,1.29-.34,1.14,1.14,0,0,0,.45-1,.78.78,0,0,0-.22-.58,1.49,1.49,0,0,0-.57-.35,7.16,7.16,0,0,0-.91-.26,8.76,8.76,0,0,1-1.23-.35,1.81,1.81,0,0,1-.79-.53,1.37,1.37,0,0,1-.33-1,1.71,1.71,0,0,1,.29-1,1.82,1.82,0,0,1,.81-.65,2.94,2.94,0,0,1,1.23-.23,3.59,3.59,0,0,1,1.24.21,2.82,2.82,0,0,1,1,.64l-.24.45a3,3,0,0,0-.94-.6,2.68,2.68,0,0,0-1-.2,2.06,2.06,0,0,0-1.29.36,1.18,1.18,0,0,0-.47,1,.91.91,0,0,0,.41.81,3.63,3.63,0,0,0,1.18.45l.27.07a8.75,8.75,0,0,1,1.17.34,1.92,1.92,0,0,1,.73.49,1.27,1.27,0,0,1,.3.88,1.58,1.58,0,0,1-.28.94,1.8,1.8,0,0,1-.81.64,3.17,3.17,0,0,1-1.23.22A4.33,4.33,0,0,1,72.43,49.19Z" transform="translate(7.8)"/><path class="cls-26" d="M84.18,49a2.57,2.57,0,0,1-1-1.15,4.19,4.19,0,0,1-.36-1.8,4.1,4.1,0,0,1,.36-1.78,2.57,2.57,0,0,1,1-1.15,3,3,0,0,1,1.58-.4,3.55,3.55,0,0,1,1.24.21,2.82,2.82,0,0,1,1,.64l-.24.45a3.34,3.34,0,0,0-.94-.61,2.87,2.87,0,0,0-1-.19A2.19,2.19,0,0,0,84,44a3.85,3.85,0,0,0,0,4.19,2.15,2.15,0,0,0,1.76.75,2.68,2.68,0,0,0,1-.19,3.34,3.34,0,0,0,.94-.61l.24.45a2.82,2.82,0,0,1-1,.64,3.55,3.55,0,0,1-1.24.21A3,3,0,0,1,84.18,49Z" transform="translate(7.8)"/><path class="cls-26" d="M95.79,49.32l-.74-1.75H91.52l-.75,1.75h-.59L93,42.78h.51l2.84,6.54Zm-4.06-2.24h3.1l-1.54-3.61Z" transform="translate(7.8)"/><path class="cls-26" d="M103.57,46.52a1.66,1.66,0,0,1,.31,1,1.58,1.58,0,0,1-.56,1.31,2.41,2.41,0,0,1-1.59.46H99.12V42.78h2.52a2.39,2.39,0,0,1,1.55.45,1.72,1.72,0,0,1,.27,2.18,1.62,1.62,0,0,1-.76.56A1.58,1.58,0,0,1,103.57,46.52Zm-3.89-.77h1.88a1.9,1.9,0,0,0,1.19-.32,1.14,1.14,0,0,0,.41-.94c0-.82-.53-1.22-1.6-1.22H99.68Zm3.23,2.77a1.16,1.16,0,0,0,.4-1c0-.88-.54-1.32-1.61-1.32h-2v2.58h2A1.91,1.91,0,0,0,102.91,48.52Z" transform="translate(7.8)"/><path class="cls-26" d="M108.09,49a2.73,2.73,0,0,1-1-1.16,4.7,4.7,0,0,1,0-3.56,2.61,2.61,0,0,1,1-1.16,2.86,2.86,0,0,1,1.55-.4,2.92,2.92,0,0,1,1.56.4,2.63,2.63,0,0,1,1,1.15,4.1,4.1,0,0,1,.35,1.78,4.3,4.3,0,0,1-.35,1.79,2.67,2.67,0,0,1-1,1.16,3.22,3.22,0,0,1-3.11,0Zm3.26-.85A3.19,3.19,0,0,0,112,46a3.23,3.23,0,0,0-.61-2.09,2.36,2.36,0,0,0-3.43,0,3.18,3.18,0,0,0-.61,2.09,3.22,3.22,0,0,0,.61,2.1,2.09,2.09,0,0,0,1.71.75A2.06,2.06,0,0,0,111.35,48.14Z" transform="translate(7.8)"/><path class="cls-26" d="M116.32,49.19a3,3,0,0,1-1-.65l.24-.45a2.93,2.93,0,0,0,1,.61,3.27,3.27,0,0,0,1.19.19,2.14,2.14,0,0,0,1.28-.34,1.12,1.12,0,0,0,.46-1,.78.78,0,0,0-.22-.58,1.49,1.49,0,0,0-.57-.35,7.38,7.38,0,0,0-.92-.26,8.57,8.57,0,0,1-1.22-.35,1.91,1.91,0,0,1-.8-.53,1.41,1.41,0,0,1-.32-1,1.71,1.71,0,0,1,.29-1,1.82,1.82,0,0,1,.81-.65,2.92,2.92,0,0,1,1.22-.23,3.55,3.55,0,0,1,1.24.21,2.86,2.86,0,0,1,1,.64l-.24.45a3.16,3.16,0,0,0-.94-.6,2.77,2.77,0,0,0-1-.2,2.06,2.06,0,0,0-1.29.36,1.2,1.2,0,0,0-.46,1,.93.93,0,0,0,.4.81,3.7,3.7,0,0,0,1.19.45l.27.07a8.55,8.55,0,0,1,1.16.34,2,2,0,0,1,.74.49,1.27,1.27,0,0,1,.3.88,1.65,1.65,0,0,1-.28.94,1.83,1.83,0,0,1-.82.64,3.09,3.09,0,0,1-1.22.22A4.39,4.39,0,0,1,116.32,49.19Z" transform="translate(7.8)"/><rect class="cls-26" x="135.44" y="45.94" width="67.35" height="0.26"/></g></g></svg>